<?xml version="1.0" encoding="UTF-8"?>
<svg id="Layer_2" data-name="Layer 2" xmlns="http://www.w3.org/2000/svg" viewBox="0 0 1246.98 944.29">
  <defs>
    <style>
      .cls-1 {
        fill: #f28fac;
      }

      .cls-2 {
        fill: #284499;
      }
    </style>
  </defs>
  <path class="cls-2" d="m1057.37,447.27c-67.92,30.83-133.22,73.03-134.81,125.44-2.53,83.25,158.15,111.95,160.46,199.99,2.25,85.4-145.85,176.01-269.46,171.42-11.63-.43-115.34-5.35-130.78-58.05-8.85-30.18,14.81-62.84,19.63-68.35,58.96-67.49,186.92-45.37,197.67-78.64,11.95-36.99-146.44-63.54-168.52-148.65-19.22-74.07,89.85-159.69,164.05-193.8,63.23-29.07,146.35-42.49,172.27-11.2,3.42,4.12,14.25,17.2,11.83,33.27-2.64,17.5-19.24,26.89-22.34,28.58Z"/>
  <path class="cls-2" d="m79.02,145.97C-47.69,415.28,6.3,660.84,47.34,847.5c6.14,27.91,16.86,71.36,45.44,82.56,42.94,16.83,111.52-44.88,142.21-114.19,56.49-127.58-18.9-273.07.17-282.52,31.91-15.83,191.37,417.6,309.65,393.83,23.97-4.82,41.48-27.45,59.74-63.45,141.94-279.78,46.69-809.15-36.48-809.5-62.92-.27-83.68,302.39-162.22,301.47C321.28,354.71,289.79,3.29,192.83.02c-44.42-1.5-78.48,70.89-113.8,145.95Z"/>
  <path class="cls-1" d="m752.98,76.98c-63.97,38.11-97.39,134.16-60.07,206.56,56.06,108.75,221.33,66.34,225.88,45.32,3.69-17.07-95.94-32.54-102.81-86.29-7.82-61.19,113.42-102.81,103.02-145.44-8.43-34.54-100.65-59.09-166.02-20.14Z"/>
  <path class="cls-1" d="m1177.68,80.95c62.12,41.25,91.1,138.79,50.54,209.19-60.92,105.74-223.94,55.13-227.52,33.92-2.9-17.23,97.24-27.67,106.55-80.98,10.6-60.69-108.53-108.3-96.2-150.34,9.99-34.05,103.15-53.94,166.63-11.79Z"/>
  <path class="cls-2" d="m972.12,144.76c-38.92,54.98-65.25,139.59-56.88,152.84,2.95,4.67,9.55-.57,15.8-5.52,48.63-38.58,71.18-158.94,62.15-169.41-2.98-3.45-9.17,5.29-21.07,22.1Z"/>
</svg>